<svg xmlns="http://www.w3.org/2000/svg" width="200" height="200" viewBox="0 0 200 200">
  <rect width="200" height="200" fill="#6c757d"/>
  <g fill="#fff">
    <path d="M100,55c-8.3,0-15,6.7-15,15v65c0,8.3,6.7,15,15,15s15-6.7,15-15V70C115,61.7,108.3,55,100,55z M105,135c0,2.8-2.2,5-5,5s-5-2.2-5-5v-65c0-2.8,2.2-5,5-5s5,2.2,5,5V135z"/>
    <path d="M130,55c-8.3,0-15,6.7-15,15v10c0,8.3,6.7,15,15,15s15-6.7,15-15V70C145,61.7,138.3,55,130,55z M135,80c0,2.8-2.2,5-5,5s-5-2.2-5-5V70c0-2.8,2.2-5,5-5s5,2.2,5,5V80z"/>
    <path d="M70,55c-8.3,0-15,6.7-15,15v10c0,8.3,6.7,15,15,15s15-6.7,15-15V70C85,61.7,78.3,55,70,55z M75,80c0,2.8-2.2,5-5,5s-5-2.2-5-5V70c0-2.8,2.2-5,5-5s5,2.2,5,5V80z"/>
  </g>
</svg>
